<svg width="50" height="50" viewBox="0 0 50 50" fill="none" xmlns="http://www.w3.org/2000/svg">
<path d="M45.6714 34.2963V31.2894C45.6714 30.3111 46.4646 29.5176 47.4431 29.5176C48.4216 29.5176 49.2146 30.3111 49.2146 31.2894V34.2963C49.2146 35.275 48.4215 36.0681 47.4431 36.0681C46.4646 36.0682 45.6714 35.2749 45.6714 34.2963Z" fill="#FF9C9F"/>
<path d="M45.6714 31.2893C45.6714 27.928 42.9368 25.1934 39.5755 25.1934C36.214 25.1934 33.4793 27.928 33.4793 31.2893V35.329C33.4793 36.3072 32.6861 37.1006 31.7077 37.1006C30.7293 37.1006 29.936 36.3072 29.936 35.329V31.2893C29.936 25.974 34.2603 21.6499 39.5756 21.6499C44.8908 21.6499 49.2147 25.974 49.2147 31.2893H45.6714Z" fill="#4D3D2D"/>
<path d="M23.3263 40.9554H17.1517C13.0828 40.9554 9.77227 37.6449 9.77227 33.5761V29.5647C9.77227 27.83 8.36094 26.4186 6.62617 26.4186C4.8915 26.4186 3.48008 27.8301 3.48008 29.5647C3.48008 30.309 2.87666 30.9119 2.13281 30.9119C1.38896 30.9119 0.785645 30.309 0.785645 29.5647C0.785645 26.3442 3.40576 23.7241 6.62627 23.7241C9.84678 23.7241 12.4669 26.3442 12.4669 29.5647V33.5762C12.4669 36.1596 14.5686 38.261 17.1518 38.261H23.3264C24.0703 38.261 24.6735 38.8645 24.6735 39.6084C24.6734 40.3523 24.07 40.9554 23.3263 40.9554Z" fill="#4D3D2D"/>
<path d="M42.4812 41.2358C43.1752 41.2358 43.7377 41.7982 43.7377 42.4922C43.7377 43.1861 43.1753 43.7488 42.4812 43.7488H38.5813C37.8874 43.7488 37.3247 43.1862 37.3247 42.4922C37.3247 41.7981 37.8873 41.2358 38.5813 41.2358H42.4812Z" fill="#DB8689"/>
<path d="M33.181 30.96C29.6494 30.96 26.7866 33.8228 26.7866 37.3543C26.7866 40.8858 29.6495 43.7488 33.181 43.7488H39.5753V37.3543C39.5753 33.8227 36.7125 30.96 33.181 30.96Z" fill="#4D3D2D"/>
<path d="M17.5093 29.2646C17.5093 24.2284 21.5921 20.1455 26.6284 20.1455C31.665 20.1455 35.7478 24.2284 35.7478 29.2646V34.6295C35.7478 39.6659 31.665 43.7489 26.6284 43.7489C21.5921 43.7489 17.5093 39.666 17.5093 34.6295V29.2646V29.2646Z" fill="#65513C"/>
<path d="M33.0173 6.25098C38.4095 6.25098 42.7809 10.6223 42.7809 16.0146C42.7809 21.4066 38.4095 25.7781 33.0173 25.7781H27.5784C22.1862 25.7781 17.8149 21.4066 17.8149 16.0146C17.8149 10.6223 22.1862 6.25098 27.5784 6.25098H33.0173Z" fill="#65513C"/>
<path d="M42.2426 19.2129C42.5901 18.2109 42.7812 17.1354 42.7812 16.0147C42.7812 14.6771 42.5116 13.4028 42.0247 12.2419C41.258 11.6702 40.3785 11.2417 39.426 10.9949C38.2263 11.3822 37.2266 12.2155 36.6267 13.302C35.8594 11.9124 34.4395 10.9354 32.7809 10.7798C28.9031 11.0757 25.8481 14.3132 25.8481 18.2671C25.8481 22.3011 29.0299 25.5883 33.0204 25.766C33.1132 25.7733 33.2083 25.7785 33.3088 25.7785H39.235C41.4288 25.7785 43.2073 24 43.2073 21.806C43.2071 20.8146 42.8431 19.9086 42.2426 19.2129Z" fill="#FF9C9F"/>
<path d="M20.1273 12.3486C18.1026 12.3486 16.4614 13.9901 16.4614 16.0146C16.4614 18.0394 18.1026 19.6807 20.1273 19.6807V12.3486V12.3486Z" fill="#65513C"/>
<path d="M20.1275 13.7651C18.8849 13.7651 17.8779 14.7722 17.8779 16.0145C17.8779 17.2569 18.8849 18.2642 20.1275 18.2642V13.7651Z" fill="#FF9C9F"/>
<path d="M31.5968 41.2358C32.2908 41.2358 32.8534 41.7982 32.8534 42.4922C32.8534 43.1861 32.2909 43.7488 31.5968 43.7488H27.6969C27.0028 43.7488 26.4404 43.1862 26.4404 42.4922C26.4404 41.7981 27.0027 41.2358 27.6969 41.2358H31.5968Z" fill="#FF9C9F"/>
<path d="M22.2967 30.96C18.7651 30.96 15.9023 33.8228 15.9023 37.3543C15.9023 40.8858 18.7652 43.7488 22.2967 43.7488H28.6909V37.3543C28.6908 33.8227 25.8279 30.96 22.2967 30.96Z" fill="#65513C"/>
<path d="M20.5217 12.8723H17.5147C16.5361 12.8723 15.7432 12.0791 15.7432 11.1007C15.7432 10.1223 16.5362 9.3291 17.5147 9.3291H20.5217C21.5002 9.3291 22.2935 10.1223 22.2935 11.1007C22.2935 12.0791 21.5001 12.8723 20.5217 12.8723Z" fill="#FF9C9F"/>
<path d="M17.515 12.8724C14.1536 12.8724 11.4189 15.607 11.4189 18.9683C11.4189 22.3297 14.1536 25.0644 17.515 25.0644H21.5547C22.5331 25.0644 23.3263 25.8577 23.3263 26.8361C23.3263 27.8145 22.533 28.6075 21.5547 28.6075H17.515C12.1997 28.6075 7.87549 24.2837 7.87549 18.9682C7.87549 13.6529 12.1997 9.3291 17.515 9.3291V12.8724V12.8724Z" fill="#65513C"/>
<path d="M48.1665 25.3901C47.1058 23.8496 45.6698 22.6352 43.9914 21.8485C43.9915 21.8343 43.9925 21.8202 43.9925 21.8062C43.9925 20.8188 43.6846 19.8591 43.1179 19.0589C43.4156 18.0722 43.5663 17.0502 43.5663 16.015C43.5663 14.6035 43.2912 13.2318 42.7486 11.9384C42.7459 11.9317 42.7419 11.9257 42.739 11.919L42.7408 11.9182C41.0878 7.99853 37.2709 5.46582 33.0172 5.46582H27.5783C24.7927 5.46582 22.1019 6.5834 20.1327 8.54375H17.5147C11.7664 8.54375 7.08984 13.2201 7.08984 18.9683C7.08984 20.4235 7.39004 21.81 7.93105 23.0693C7.50361 22.9836 7.0666 22.939 6.62588 22.939C2.97236 22.9389 0 25.9112 0 29.5648C0 30.7407 0.956738 31.6974 2.13252 31.6974C3.3083 31.6974 4.26523 30.7406 4.26523 29.5648C4.26523 28.263 5.32422 27.204 6.62598 27.204C7.92773 27.204 8.98672 28.263 8.98672 29.5648V33.5763C8.98672 35.7271 9.81904 37.7587 11.3303 39.2963C12.7468 40.7377 14.607 41.5904 16.6041 41.7227C17.9179 43.4306 19.9802 44.5343 22.2965 44.5343H31.5963C31.7855 44.5343 31.9681 44.5063 32.142 44.4579C32.4844 44.5076 32.8329 44.5343 33.1811 44.5343H42.4809C43.6067 44.5343 44.5228 43.6183 44.5228 42.4923C44.5228 41.3665 43.6068 40.4505 42.4809 40.4505H40.3606V37.3546C40.3606 34.6792 38.8744 32.2404 36.5329 31.0039V29.2648C36.5329 28.3424 36.4067 27.4387 36.1581 26.5641H39.2345C39.8858 26.5641 40.5066 26.4322 41.0726 26.1944C43.3306 26.8557 44.8857 28.9145 44.8857 31.2896V34.2966C44.8857 35.7066 46.0328 36.8538 47.4429 36.8538C48.8527 36.8538 49.9998 35.7066 49.9998 34.2966V31.2896C50 29.1719 49.3659 27.1319 48.1665 25.3901ZM18.3003 10.1146H20.5219C21.0658 10.1146 21.5083 10.5569 21.5083 11.1008C21.5083 11.6445 21.0657 12.087 20.5219 12.087H18.3003V10.1146ZM17.7134 19.752C18.1013 20.7765 18.6391 21.7254 19.3217 22.5811C18.8448 23.1014 18.4274 23.6699 18.0717 24.2789H17.5146C14.5863 24.2789 12.2039 21.8965 12.2039 18.9682C12.2039 16.4697 13.9388 14.37 16.2669 13.8072C15.8871 14.4714 15.6758 15.2315 15.6758 16.0148C15.6761 17.5801 16.4887 18.9581 17.7134 19.752ZM10.5575 33.5763V29.5648C10.5575 27.397 8.79385 25.6332 6.62598 25.6332C4.45811 25.6332 2.69443 27.397 2.69443 29.5648C2.69443 29.8746 2.44238 30.1267 2.13252 30.1267C1.82275 30.1267 1.5707 29.8746 1.5707 29.5648C1.5707 26.7773 3.83848 24.5097 6.62588 24.5097C7.51719 24.5097 8.38828 24.7445 9.15488 25.1896C9.70273 25.9239 10.3451 26.5839 11.0636 27.1515C11.4663 27.8893 11.681 28.7198 11.681 29.5648V33.5763C11.681 35.8758 13.1231 37.9142 15.2454 38.7033C15.3301 39.1469 15.4561 39.5758 15.6186 39.9867C12.7267 39.2879 10.5575 36.6613 10.5575 33.5763ZM15.1319 36.9116C13.9884 36.2177 13.2521 34.9635 13.2521 33.5762V29.5648C13.2521 29.1851 13.2188 28.8074 13.1545 28.4359C14.2549 28.9446 15.4581 29.2676 16.7239 29.3631V32.8342C15.8072 33.9618 15.2261 35.3718 15.1319 36.9116ZM27.9055 42.9636H22.2966C19.2038 42.9636 16.6876 40.4474 16.6876 37.3544C16.6876 34.2617 19.2037 31.7454 22.2966 31.7454C25.3893 31.7454 27.9055 34.2615 27.9055 37.3544V42.9636ZM31.5965 42.9636H29.4763V42.0213H31.5965C31.8563 42.0213 32.0677 42.2326 32.0677 42.4923C32.0677 42.7522 31.8563 42.9636 31.5965 42.9636ZM32.4172 40.6241C32.1657 40.5131 31.8884 40.4505 31.5964 40.4505H29.4762V37.3544C29.4762 33.3955 26.2554 30.1747 22.2966 30.1747C20.816 30.1747 19.4388 30.6254 18.2945 31.3966V29.3928H21.5545C21.9884 29.3928 22.3398 29.0412 22.3398 28.6074C22.3398 28.1735 21.9883 27.8221 21.5545 27.8221H17.5148C12.6327 27.8221 8.66074 23.8502 8.66074 18.9682C8.66074 14.3511 12.2141 10.5502 16.7295 10.1512V12.133C13.3037 12.5241 10.6334 15.4395 10.6334 18.9681C10.6334 22.7625 13.7203 25.8495 17.5148 25.8495H21.5545C21.9884 25.8495 22.3398 25.4979 22.3398 25.0642C22.3398 24.6303 21.9883 24.2788 21.5545 24.2788H19.9531C20.244 23.8903 20.5684 23.5265 20.9253 23.1911C21.2391 22.8965 21.2571 22.4042 20.9659 22.0873C20.5029 21.5835 20.1062 21.0354 19.7733 20.4509C19.8902 20.4601 20.008 20.4662 20.1272 20.4662C20.5609 20.4662 20.9126 20.1146 20.9126 19.6809C20.9126 19.2471 20.5609 18.8955 20.1272 18.8955C18.5389 18.8955 17.2467 17.6032 17.2467 16.0147C17.2467 15.0642 17.7011 14.1975 18.4715 13.6575H19.2736C18.3333 14.0278 17.6656 14.9445 17.6656 16.0147C17.6656 17.4115 18.8021 18.5479 20.1988 18.5479C20.6327 18.5479 20.9842 18.1964 20.9842 17.7626C20.9842 17.3287 20.6326 16.9772 20.1988 16.9772C19.6682 16.9772 19.2363 16.5455 19.2363 16.0147C19.2363 15.4843 19.6681 15.0526 20.1988 15.0526C20.6327 15.0526 20.9842 14.7011 20.9842 14.2673C20.9842 14.0176 20.8673 13.7956 20.6857 13.6518C22.0194 13.5668 23.0788 12.4554 23.0788 11.1007C23.0788 10.2313 22.6423 9.4624 21.9772 9.0002C23.5582 7.74082 25.5383 7.03652 27.5781 7.03652H33.0173C35.7645 7.03652 38.2967 8.27832 39.9737 10.3347C39.8576 10.299 39.7407 10.2652 39.6227 10.2347C39.4783 10.1972 39.3262 10.2016 39.1844 10.2476C38.1824 10.571 37.3029 11.1562 36.6261 11.9371C35.674 10.8401 34.3292 10.1363 32.8541 9.99785C32.8097 9.99355 32.7649 9.99316 32.721 9.99658C30.6413 10.1554 28.7108 11.0856 27.2855 12.6164C25.8521 14.1557 25.0627 16.1623 25.0627 18.2671C25.0627 22.7096 28.5358 26.3453 32.9719 26.55C33.0945 26.5596 33.2019 26.564 33.3088 26.564H34.5108C34.8093 27.4315 34.9626 28.3366 34.9626 29.2647V34.6296C34.9623 36.903 34.041 39.0565 32.4172 40.6241ZM40.3607 42.0213H42.481C42.7406 42.0213 42.9521 42.2326 42.9521 42.4923C42.9521 42.752 42.7406 42.9635 42.481 42.9635H40.3607V42.0213ZM36.5331 34.6295V32.8565C37.9334 33.9012 38.79 35.5594 38.79 37.3544V42.9636H33.5814C33.6175 42.812 33.6385 42.6548 33.6385 42.4924C33.6385 42.2345 33.5884 41.9886 33.5008 41.7612C35.4354 39.8978 36.5331 37.3353 36.5331 34.6295ZM39.2347 24.9932H33.3085C33.2402 24.9932 33.1683 24.99 33.0823 24.9831C33.0732 24.9823 33.0642 24.9818 33.0551 24.9814C29.454 24.821 26.6332 21.8718 26.6332 18.2671C26.6332 14.796 29.3243 11.8667 32.7727 11.5685C34.1069 11.7149 35.287 12.5012 35.9388 13.6816C36.077 13.932 36.3403 14.0874 36.6264 14.0874C36.9122 14.0874 37.1756 13.932 37.3139 13.6817C37.7885 12.8224 38.5429 12.1671 39.4536 11.8177C40.1433 12.022 40.79 12.3335 41.3815 12.7464C41.7891 13.7874 41.9955 14.8858 41.9955 16.0148C41.9955 17.0191 41.8289 18.0086 41.5004 18.9556C41.4086 19.2203 41.4647 19.5141 41.6479 19.7261C42.147 20.3041 42.4217 21.0428 42.4217 21.8059C42.4216 23.5635 40.9919 24.9932 39.2347 24.9932ZM42.6385 25.1257C43.0994 24.653 43.4638 24.0855 43.6974 23.455C46.3682 24.8574 48.1304 27.4983 48.3937 30.504H46.4111C46.1466 28.1667 44.7149 26.1525 42.6385 25.1257ZM48.4292 34.2964C48.4292 34.8403 47.9868 35.2828 47.443 35.2828C46.8992 35.2828 46.4566 34.8402 46.4566 34.2964V32.0748H48.4292V34.2964ZM38.367 18.0302L37.901 18.4961C37.5941 18.8028 37.5941 19.3 37.9009 19.6068C38.0543 19.7603 38.2553 19.8369 38.4562 19.8369C38.6572 19.8369 38.8583 19.7603 39.0115 19.6069L39.4775 19.141C39.7844 18.8343 39.7844 18.3371 39.4776 18.0304C39.1709 17.7235 38.6736 17.7234 38.367 18.0302ZM36.1409 18.0302C35.8341 17.7235 35.3369 17.7235 35.0302 18.0302C34.7234 18.337 34.7234 18.8342 35.0302 19.1409L35.4961 19.6068C35.6495 19.7602 35.8506 19.8368 36.0515 19.8368C36.2524 19.8368 36.4535 19.7602 36.6068 19.6068C36.9136 19.3 36.9136 18.8028 36.6068 18.4961L36.1409 18.0302ZM31.4005 15.128C30.9431 15.128 30.5729 15.4984 30.5729 15.956C30.5729 16.4133 30.9432 16.7839 31.4005 16.7839C31.8577 16.7839 32.2284 16.4133 32.2284 15.956C32.2284 15.4984 31.8577 15.128 31.4005 15.128ZM41.9406 15.956C41.9406 15.4984 41.5704 15.128 41.113 15.128C40.6558 15.128 40.2854 15.4984 40.2854 15.956C40.2854 16.4133 40.6559 16.7839 41.113 16.7839C41.5704 16.7838 41.9406 16.4133 41.9406 15.956Z" fill="#1E252B"/>
</svg>
